<svg width="1400" height="760" viewBox="0 0 1400 760" fill="none" xmlns="http://www.w3.org/2000/svg" role="img" aria-labelledby="title desc">
  <title id="title">Generic classifier versus Argis runtime</title>
  <desc id="desc">A side-by-side comparison showing how a generic LLM classifier differs from the Argis phishing-analysis runtime.</desc>
  <defs>
    <linearGradient id="bg2" x1="70" y1="40" x2="1330" y2="720" gradientUnits="userSpaceOnUse">
      <stop stop-color="#FBF7EE"/>
      <stop offset="1" stop-color="#F2F7F7"/>
    </linearGradient>
    <linearGradient id="leftPane" x1="106" y1="126" x2="632" y2="640" gradientUnits="userSpaceOnUse">
      <stop stop-color="#FFF8F1"/>
      <stop offset="1" stop-color="#FDEFE5"/>
    </linearGradient>
    <linearGradient id="rightPane" x1="768" y1="126" x2="1294" y2="640" gradientUnits="userSpaceOnUse">
      <stop stop-color="#F4FFFC"/>
      <stop offset="1" stop-color="#EEF6FF"/>
    </linearGradient>
    <filter id="paneShadow" x="80" y="100" width="1240" height="590" filterUnits="userSpaceOnUse" color-interpolation-filters="sRGB">
      <feFlood flood-opacity="0" result="BackgroundImageFix"/>
      <feColorMatrix in="SourceAlpha" type="matrix" values="0 0 0 0 0 0 0 0 0 0 0 0 0 0 0 0 0 0 127 0" result="hardAlpha"/>
      <feOffset dy="16"/>
      <feGaussianBlur stdDeviation="18"/>
      <feColorMatrix type="matrix" values="0 0 0 0 0.0588235 0 0 0 0 0.0901961 0 0 0 0 0.164706 0 0 0 0.10 0"/>
      <feBlend mode="normal" in2="BackgroundImageFix" result="effect1_dropShadow_0_3"/>
      <feBlend mode="normal" in="SourceGraphic" in2="effect1_dropShadow_0_3" result="shape"/>
    </filter>
  </defs>

  <rect width="1400" height="760" rx="30" fill="url(#bg2)"/>
  <rect x="518" y="56" width="364" height="34" rx="17" fill="#FFFFFF" fill-opacity="0.78" stroke="#CBD5E1"/>
  <text x="700" y="78" text-anchor="middle" fill="#0F766E" font-family="Arial, sans-serif" font-size="14" font-weight="700" letter-spacing="2">ARGIS TECH DOC  •  SYSTEM COMPARISON</text>
  <text x="700" y="126" text-anchor="middle" fill="#0F172A" font-family="Georgia, 'Times New Roman', serif" font-size="42" font-weight="700">Two Very Different Ways To Build A Phishing Detector</text>
  <text x="700" y="162" text-anchor="middle" fill="#64748B" font-family="Arial, sans-serif" font-size="22">The visual difference is not cosmetic. It changes evidence quality, safety posture, and operator trust.</text>

  <g filter="url(#paneShadow)">
    <rect x="104" y="188" width="540" height="472" rx="28" fill="url(#leftPane)" stroke="#EA580C" stroke-width="1.6"/>
    <rect x="756" y="188" width="540" height="472" rx="28" fill="url(#rightPane)" stroke="#0F766E" stroke-width="1.6"/>
  </g>

  <text x="148" y="246" fill="#9A3412" font-family="Georgia, 'Times New Roman', serif" font-size="32" font-weight="700">Generic LLM Classifier</text>
  <text x="800" y="246" fill="#0F766E" font-family="Georgia, 'Times New Roman', serif" font-size="32" font-weight="700">Argis Runtime</text>

  <rect x="148" y="284" width="452" height="82" rx="20" fill="#FFFFFF" fill-opacity="0.78"/>
  <text x="176" y="318" fill="#7C2D12" font-family="Georgia, 'Times New Roman', serif" font-size="24" font-weight="700">Raw email and artifacts</text>
  <text x="176" y="346" fill="#78716C" font-family="Arial, sans-serif" font-size="17">Large prompt, implicit assumptions, unclear evidence boundaries.</text>

  <path d="M374 366V410" stroke="#EA580C" stroke-width="6" stroke-linecap="round"/>
  <path d="M374 410L360 394V426L374 410Z" fill="#EA580C"/>

  <rect x="148" y="426" width="452" height="102" rx="20" fill="#FFF4ED"/>
  <text x="176" y="462" fill="#9A3412" font-family="Georgia, 'Times New Roman', serif" font-size="24" font-weight="700">Single-shot model judgment</text>
  <text x="176" y="490" fill="#78716C" font-family="Arial, sans-serif" font-size="17">Context volume and reasoning quality are tightly coupled.</text>
  <text x="176" y="516" fill="#78716C" font-family="Arial, sans-serif" font-size="17">Evidence references often exist only inside prompt narrative.</text>

  <path d="M374 528V572" stroke="#EA580C" stroke-width="6" stroke-linecap="round"/>
  <path d="M374 572L360 556V588L374 572Z" fill="#EA580C"/>

  <rect x="148" y="588" width="452" height="72" rx="20" fill="#FFE7DA"/>
  <text x="176" y="630" fill="#9A3412" font-family="Arial, sans-serif" font-size="21" font-weight="700">Output: fluent answer, weaker control over provenance and fallback</text>

  <rect x="800" y="284" width="452" height="68" rx="18" fill="#FFFFFF" fill-opacity="0.82"/>
  <text x="828" y="326" fill="#134E4A" font-family="Georgia, 'Times New Roman', serif" font-size="24" font-weight="700">1. Normalize caller input</text>

  <path d="M1026 352V380" stroke="#0F766E" stroke-width="6" stroke-linecap="round"/>
  <path d="M1026 380L1012 364V396L1026 380Z" fill="#0F766E"/>

  <rect x="800" y="396" width="452" height="68" rx="18" fill="#ECFDF5"/>
  <text x="828" y="438" fill="#065F46" font-family="Georgia, 'Times New Roman', serif" font-size="24" font-weight="700">2. Build `EvidencePack` and `precheck`</text>

  <path d="M1026 464V492" stroke="#0F766E" stroke-width="6" stroke-linecap="round"/>
  <path d="M1026 492L1012 476V508L1026 492Z" fill="#0F766E"/>

  <rect x="800" y="508" width="452" height="68" rx="18" fill="#F0FDFA"/>
  <text x="828" y="550" fill="#0F766E" font-family="Georgia, 'Times New Roman', serif" font-size="24" font-weight="700">3. Route FAST, STANDARD, or DEEP</text>

  <path d="M1026 576V604" stroke="#0F766E" stroke-width="6" stroke-linecap="round"/>
  <path d="M1026 604L1012 588V620L1026 604Z" fill="#0F766E"/>

  <rect x="800" y="620" width="452" height="72" rx="18" fill="#E0F2FE"/>
  <text x="828" y="650" fill="#1D4ED8" font-family="Georgia, 'Times New Roman', serif" font-size="24" font-weight="700">4. Optional judge plus validation and fallback</text>
  <text x="828" y="676" fill="#64748B" font-family="Arial, sans-serif" font-size="17">Output carries path, evidence references, and operational runtime state.</text>

  <rect x="650" y="256" width="90" height="404" rx="28" fill="#0F172A"/>
  <text x="695" y="398" text-anchor="middle" fill="#F8FAFC" font-family="Arial, sans-serif" font-size="18" font-weight="700" transform="rotate(90 695 398)">Different system shape</text>
</svg>
